<mxfile host="app.diagrams.net" agent="Mozilla/5.0 (Macintosh; Intel Mac OS X 10_15_7) AppleWebKit/537.36 (KHTML, like Gecko) Chrome/129.0.0.0 Safari/537.36" version="25.0.3">
  <diagram name="Page-1" id="gpTWxMocImUM8uuZfC-y">
    <mxGraphModel dx="1042" dy="635" grid="1" gridSize="10" guides="1" tooltips="1" connect="1" arrows="1" fold="1" page="1" pageScale="1" pageWidth="850" pageHeight="1100" math="0" shadow="0">
      <root>
        <mxCell id="0" />
        <mxCell id="1" parent="0" />
        <mxCell id="1ukrf8s2K56CdNGvxVET-15" value="" style="sketch=0;pointerEvents=1;shadow=0;dashed=0;html=1;strokeColor=none;fillColor=#01a88d;labelPosition=center;verticalLabelPosition=bottom;verticalAlign=top;outlineConnect=0;align=center;shape=mxgraph.office.users.call_center_agent;" parent="1" vertex="1">
          <mxGeometry x="205" y="158" width="46" height="55" as="geometry" />
        </mxCell>
        <mxCell id="1ukrf8s2K56CdNGvxVET-40" style="edgeStyle=orthogonalEdgeStyle;rounded=0;orthogonalLoop=1;jettySize=auto;html=1;startArrow=classic;startFill=1;" parent="1" edge="1">
          <mxGeometry relative="1" as="geometry">
            <mxPoint x="200" y="190" as="targetPoint" />
            <mxPoint x="90" y="190" as="sourcePoint" />
          </mxGeometry>
        </mxCell>
        <mxCell id="1ukrf8s2K56CdNGvxVET-37" value="" style="shape=mxgraph.signs.tech.telephone_4;html=1;pointerEvents=1;fillColor=#01a88d;strokeColor=none;verticalLabelPosition=bottom;verticalAlign=top;align=center;" parent="1" vertex="1">
          <mxGeometry x="40" y="154" width="50" height="56" as="geometry" />
        </mxCell>
        <mxCell id="1ukrf8s2K56CdNGvxVET-1" value="" style="sketch=0;outlineConnect=0;fontColor=#232F3E;gradientColor=none;fillColor=#7AA116;strokeColor=none;dashed=0;verticalLabelPosition=bottom;verticalAlign=top;align=center;html=1;fontSize=12;fontStyle=0;aspect=fixed;pointerEvents=1;shape=mxgraph.aws4.bucket;" parent="1" vertex="1">
          <mxGeometry x="427.88" y="158.8" width="52.11590577444236" height="54.20054200542006" as="geometry" />
        </mxCell>
        <mxCell id="1ukrf8s2K56CdNGvxVET-49" style="edgeStyle=orthogonalEdgeStyle;rounded=0;orthogonalLoop=1;jettySize=auto;html=1;" parent="1" edge="1">
          <mxGeometry relative="1" as="geometry">
            <mxPoint x="58.339999999999975" y="313.5" as="targetPoint" />
            <mxPoint x="452" y="243" as="sourcePoint" />
            <Array as="points">
              <mxPoint x="452" y="253" />
              <mxPoint x="452" y="284" />
              <mxPoint x="58" y="284" />
            </Array>
          </mxGeometry>
        </mxCell>
        <mxCell id="1ukrf8s2K56CdNGvxVET-42" style="edgeStyle=orthogonalEdgeStyle;rounded=0;orthogonalLoop=1;jettySize=auto;html=1;entryX=-0.151;entryY=0.493;entryDx=0;entryDy=0;entryPerimeter=0;" parent="1" edge="1">
          <mxGeometry relative="1" as="geometry">
            <mxPoint x="254" y="189.52086720867203" as="sourcePoint" />
            <mxPoint x="423.01650485915866" y="189.52086720867203" as="targetPoint" />
          </mxGeometry>
        </mxCell>
        <mxCell id="1ukrf8s2K56CdNGvxVET-46" value="&lt;font style=&quot;font-size: 10px;&quot;&gt;&lt;b&gt;Audio Data&lt;/b&gt;&lt;/font&gt;" style="text;html=1;align=center;verticalAlign=middle;resizable=0;points=[];autosize=1;strokeColor=none;fillColor=none;" parent="1" vertex="1">
          <mxGeometry x="300.4" y="183" width="80" height="30" as="geometry" />
        </mxCell>
        <mxCell id="1ukrf8s2K56CdNGvxVET-47" value="" style="sketch=0;points=[[0,0,0],[0.25,0,0],[0.5,0,0],[0.75,0,0],[1,0,0],[0,1,0],[0.25,1,0],[0.5,1,0],[0.75,1,0],[1,1,0],[0,0.25,0],[0,0.5,0],[0,0.75,0],[1,0.25,0],[1,0.5,0],[1,0.75,0]];outlineConnect=0;fontColor=#232F3E;fillColor=#E7157B;strokeColor=#ffffff;dashed=0;verticalLabelPosition=bottom;verticalAlign=top;align=center;html=1;fontSize=12;fontStyle=0;aspect=fixed;shape=mxgraph.aws4.resourceIcon;resIcon=mxgraph.aws4.eventbridge;" parent="1" vertex="1">
          <mxGeometry x="462" y="154" width="18" height="18" as="geometry" />
        </mxCell>
        <mxCell id="1ukrf8s2K56CdNGvxVET-61" style="edgeStyle=orthogonalEdgeStyle;rounded=0;orthogonalLoop=1;jettySize=auto;html=1;" parent="1" edge="1">
          <mxGeometry relative="1" as="geometry">
            <mxPoint x="416" y="340" as="targetPoint" />
            <mxPoint x="301" y="340" as="sourcePoint" />
          </mxGeometry>
        </mxCell>
        <mxCell id="1ukrf8s2K56CdNGvxVET-3" value="" style="sketch=0;points=[[0,0,0],[0.25,0,0],[0.5,0,0],[0.75,0,0],[1,0,0],[0,1,0],[0.25,1,0],[0.5,1,0],[0.75,1,0],[1,1,0],[0,0.25,0],[0,0.5,0],[0,0.75,0],[1,0.25,0],[1,0.5,0],[1,0.75,0]];outlineConnect=0;fontColor=#232F3E;fillColor=#01A88D;strokeColor=#ffffff;dashed=0;verticalLabelPosition=bottom;verticalAlign=top;align=center;html=1;fontSize=12;fontStyle=0;aspect=fixed;shape=mxgraph.aws4.resourceIcon;resIcon=mxgraph.aws4.transcribe;" parent="1" vertex="1">
          <mxGeometry x="245" y="320" width="50" height="50" as="geometry" />
        </mxCell>
        <mxCell id="1ukrf8s2K56CdNGvxVET-48" value="" style="group" parent="1" vertex="1" connectable="0">
          <mxGeometry x="322" y="162" width="36.799999999999955" height="25" as="geometry" />
        </mxCell>
        <mxCell id="1ukrf8s2K56CdNGvxVET-33" value="" style="shadow=0;dashed=0;html=1;strokeColor=none;fillColor=#01a88d;labelPosition=center;verticalLabelPosition=bottom;verticalAlign=top;align=center;outlineConnect=0;shape=mxgraph.veeam.audio_file;" parent="1ukrf8s2K56CdNGvxVET-48" vertex="1">
          <mxGeometry width="16.8" height="25" as="geometry" />
        </mxCell>
        <mxCell id="1ukrf8s2K56CdNGvxVET-34" value="" style="shadow=0;dashed=0;html=1;strokeColor=none;fillColor=#01a88d;labelPosition=center;verticalLabelPosition=bottom;verticalAlign=top;align=center;outlineConnect=0;shape=mxgraph.veeam.audio_file;" parent="1ukrf8s2K56CdNGvxVET-48" vertex="1">
          <mxGeometry x="20" width="16.8" height="25" as="geometry" />
        </mxCell>
        <mxCell id="1ukrf8s2K56CdNGvxVET-52" style="edgeStyle=orthogonalEdgeStyle;rounded=0;orthogonalLoop=1;jettySize=auto;html=1;" parent="1" edge="1">
          <mxGeometry relative="1" as="geometry">
            <mxPoint x="238" y="340" as="targetPoint" />
            <mxPoint x="90" y="340" as="sourcePoint" />
          </mxGeometry>
        </mxCell>
        <mxCell id="1ukrf8s2K56CdNGvxVET-5" value="" style="outlineConnect=0;dashed=0;verticalLabelPosition=bottom;verticalAlign=top;align=center;html=1;shape=mxgraph.aws3.lambda_function;fillColor=#F58534;gradientColor=none;" parent="1" vertex="1">
          <mxGeometry x="30" y="318" width="50" height="50" as="geometry" />
        </mxCell>
        <mxCell id="1ukrf8s2K56CdNGvxVET-50" value="&lt;font style=&quot;font-size: 10px;&quot;&gt;&lt;b&gt;Event trigger&lt;/b&gt;&lt;/font&gt;" style="text;html=1;align=center;verticalAlign=middle;resizable=0;points=[];autosize=1;strokeColor=none;fillColor=none;" parent="1" vertex="1">
          <mxGeometry x="263" y="262" width="90" height="30" as="geometry" />
        </mxCell>
        <mxCell id="1ukrf8s2K56CdNGvxVET-57" value="" style="shadow=0;dashed=0;html=1;strokeColor=none;fillColor=#01a88d;labelPosition=center;verticalLabelPosition=bottom;verticalAlign=top;align=center;outlineConnect=0;shape=mxgraph.veeam.audio_file;" parent="1" vertex="1">
          <mxGeometry x="152" y="312" width="16.8" height="25" as="geometry" />
        </mxCell>
        <mxCell id="1ukrf8s2K56CdNGvxVET-59" value="&lt;font style=&quot;font-size: 10px;&quot;&gt;&lt;b&gt;Audio&lt;/b&gt;&lt;/font&gt;" style="text;html=1;align=center;verticalAlign=middle;resizable=0;points=[];autosize=1;strokeColor=none;fillColor=none;" parent="1" vertex="1">
          <mxGeometry x="135.39999999999998" y="336" width="50" height="30" as="geometry" />
        </mxCell>
        <mxCell id="1ukrf8s2K56CdNGvxVET-60" value="" style="sketch=0;outlineConnect=0;fontColor=#232F3E;gradientColor=none;fillColor=#7AA116;strokeColor=none;dashed=0;verticalLabelPosition=bottom;verticalAlign=top;align=center;html=1;fontSize=12;fontStyle=0;aspect=fixed;pointerEvents=1;shape=mxgraph.aws4.bucket;" parent="1" vertex="1">
          <mxGeometry x="427.88" y="320" width="52.11590577444236" height="54.20054200542006" as="geometry" />
        </mxCell>
        <mxCell id="1ukrf8s2K56CdNGvxVET-66" value="" style="shape=image;html=1;verticalAlign=top;verticalLabelPosition=bottom;labelBackgroundColor=#ffffff;imageAspect=0;aspect=fixed;image=https://cdn3.iconfinder.com/data/icons/geosm-e-commerce/48/file-128.png;container=0;" parent="1" vertex="1">
          <mxGeometry x="345.9" y="318" width="23" height="23" as="geometry" />
        </mxCell>
        <mxCell id="1ukrf8s2K56CdNGvxVET-67" value="" style="shape=image;html=1;verticalAlign=top;verticalLabelPosition=bottom;labelBackgroundColor=#ffffff;imageAspect=0;aspect=fixed;image=https://cdn3.iconfinder.com/data/icons/geosm-e-commerce/48/file-128.png;container=0;" parent="1" vertex="1">
          <mxGeometry x="363" y="318" width="23" height="23" as="geometry" />
        </mxCell>
        <mxCell id="1ukrf8s2K56CdNGvxVET-69" value="&lt;font style=&quot;font-size: 10px;&quot;&gt;&lt;b&gt;Text&lt;/b&gt;&lt;/font&gt;" style="text;html=1;align=center;verticalAlign=middle;resizable=0;points=[];autosize=1;strokeColor=none;fillColor=none;" parent="1" vertex="1">
          <mxGeometry x="344.9" y="334" width="40" height="30" as="geometry" />
        </mxCell>
        <mxCell id="1ukrf8s2K56CdNGvxVET-71" style="edgeStyle=orthogonalEdgeStyle;rounded=0;orthogonalLoop=1;jettySize=auto;html=1;" parent="1" edge="1">
          <mxGeometry relative="1" as="geometry">
            <mxPoint x="54.69999999999999" y="467.5" as="targetPoint" />
            <mxPoint x="448.3" y="419.5" as="sourcePoint" />
            <Array as="points">
              <mxPoint x="448.22999999999996" y="438.5" />
              <mxPoint x="55.23000000000002" y="438.5" />
            </Array>
          </mxGeometry>
        </mxCell>
        <mxCell id="1ukrf8s2K56CdNGvxVET-73" value="" style="outlineConnect=0;dashed=0;verticalLabelPosition=bottom;verticalAlign=top;align=center;html=1;shape=mxgraph.aws3.lambda_function;fillColor=#F58534;gradientColor=none;" parent="1" vertex="1">
          <mxGeometry x="30" y="472" width="50" height="50" as="geometry" />
        </mxCell>
        <mxCell id="1ukrf8s2K56CdNGvxVET-83" style="edgeStyle=orthogonalEdgeStyle;rounded=0;orthogonalLoop=1;jettySize=auto;html=1;" parent="1" edge="1">
          <mxGeometry relative="1" as="geometry">
            <mxPoint x="297" y="493" as="targetPoint" />
            <mxPoint x="227" y="493" as="sourcePoint" />
          </mxGeometry>
        </mxCell>
        <mxCell id="1ukrf8s2K56CdNGvxVET-7" value="" style="sketch=0;points=[[0,0,0],[0.25,0,0],[0.5,0,0],[0.75,0,0],[1,0,0],[0,1,0],[0.25,1,0],[0.5,1,0],[0.75,1,0],[1,1,0],[0,0.25,0],[0,0.5,0],[0,0.75,0],[1,0.25,0],[1,0.5,0],[1,0.75,0]];outlineConnect=0;fontColor=#232F3E;fillColor=#01A88D;strokeColor=#ffffff;dashed=0;verticalLabelPosition=bottom;verticalAlign=top;align=center;html=1;fontSize=12;fontStyle=0;aspect=fixed;shape=mxgraph.aws4.resourceIcon;resIcon=mxgraph.aws4.bedrock;" parent="1" vertex="1">
          <mxGeometry x="170" y="472" width="50" height="50" as="geometry" />
        </mxCell>
        <mxCell id="1ukrf8s2K56CdNGvxVET-74" style="edgeStyle=orthogonalEdgeStyle;rounded=0;orthogonalLoop=1;jettySize=auto;html=1;" parent="1" edge="1">
          <mxGeometry relative="1" as="geometry">
            <mxPoint x="167.8" y="492" as="targetPoint" />
            <mxPoint x="82.80000000000001" y="492" as="sourcePoint" />
          </mxGeometry>
        </mxCell>
        <mxCell id="1ukrf8s2K56CdNGvxVET-75" value="" style="shape=image;html=1;verticalAlign=top;verticalLabelPosition=bottom;labelBackgroundColor=#ffffff;imageAspect=0;aspect=fixed;image=https://cdn3.iconfinder.com/data/icons/geosm-e-commerce/48/file-128.png;container=0;" parent="1" vertex="1">
          <mxGeometry x="102.69999999999999" y="470" width="23" height="23" as="geometry" />
        </mxCell>
        <mxCell id="1ukrf8s2K56CdNGvxVET-76" value="" style="shape=image;html=1;verticalAlign=top;verticalLabelPosition=bottom;labelBackgroundColor=#ffffff;imageAspect=0;aspect=fixed;image=https://cdn3.iconfinder.com/data/icons/geosm-e-commerce/48/file-128.png;container=0;" parent="1" vertex="1">
          <mxGeometry x="119.80000000000001" y="470" width="23" height="23" as="geometry" />
        </mxCell>
        <mxCell id="1ukrf8s2K56CdNGvxVET-77" value="&lt;b&gt;Text&lt;/b&gt;" style="text;html=1;align=center;verticalAlign=middle;resizable=0;points=[];autosize=1;strokeColor=none;fillColor=none;" parent="1" vertex="1">
          <mxGeometry x="96.69999999999999" y="486" width="50" height="30" as="geometry" />
        </mxCell>
        <mxCell id="1ukrf8s2K56CdNGvxVET-80" value="" style="sketch=0;points=[[0,0,0],[0.25,0,0],[0.5,0,0],[0.75,0,0],[1,0,0],[0,1,0],[0.25,1,0],[0.5,1,0],[0.75,1,0],[1,1,0],[0,0.25,0],[0,0.5,0],[0,0.75,0],[1,0.25,0],[1,0.5,0],[1,0.75,0]];outlineConnect=0;fontColor=#232F3E;fillColor=#8C4FFF;strokeColor=#ffffff;dashed=0;verticalLabelPosition=bottom;verticalAlign=top;align=center;html=1;fontSize=12;fontStyle=0;aspect=fixed;shape=mxgraph.aws4.resourceIcon;resIcon=mxgraph.aws4.athena;" parent="1" vertex="1">
          <mxGeometry x="410" y="472" width="50" height="50" as="geometry" />
        </mxCell>
        <mxCell id="1ukrf8s2K56CdNGvxVET-110" style="edgeStyle=orthogonalEdgeStyle;rounded=0;orthogonalLoop=1;jettySize=auto;html=1;" parent="1" edge="1">
          <mxGeometry relative="1" as="geometry">
            <mxPoint x="409" y="492.10027100270986" as="targetPoint" />
            <mxPoint x="351.5112923865013" y="492.0526315789473" as="sourcePoint" />
          </mxGeometry>
        </mxCell>
        <mxCell id="1ukrf8s2K56CdNGvxVET-81" value="" style="sketch=0;outlineConnect=0;fontColor=#232F3E;gradientColor=none;fillColor=#7AA116;strokeColor=none;dashed=0;verticalLabelPosition=bottom;verticalAlign=top;align=center;html=1;fontSize=12;fontStyle=0;aspect=fixed;pointerEvents=1;shape=mxgraph.aws4.bucket;" parent="1" vertex="1">
          <mxGeometry x="300.4" y="472" width="52.11590577444236" height="54.20054200542006" as="geometry" />
        </mxCell>
        <mxCell id="1ukrf8s2K56CdNGvxVET-82" value="&lt;font style=&quot;font-size: 10px;&quot; face=&quot;Comic Sans MS&quot;&gt;&lt;b&gt;S3 Bucket&lt;/b&gt;&lt;/font&gt;&lt;div&gt;&lt;font style=&quot;font-size: 10px;&quot; face=&quot;Comic Sans MS&quot;&gt;&lt;b&gt;Analysis of&amp;nbsp;&lt;/b&gt;&lt;/font&gt;&lt;/div&gt;&lt;div&gt;&lt;font style=&quot;font-size: 10px;&quot; face=&quot;Comic Sans MS&quot;&gt;&lt;b&gt;call&amp;nbsp;&lt;span style=&quot;background-color: initial;&quot;&gt;conversation&lt;/span&gt;&lt;/b&gt;&lt;/font&gt;&lt;/div&gt;" style="text;html=1;align=center;verticalAlign=middle;resizable=0;points=[];autosize=1;strokeColor=none;fillColor=none;" parent="1" vertex="1">
          <mxGeometry x="276.46000000000004" y="516.0038461538461" width="100" height="60" as="geometry" />
        </mxCell>
        <mxCell id="1ukrf8s2K56CdNGvxVET-86" style="edgeStyle=orthogonalEdgeStyle;rounded=0;orthogonalLoop=1;jettySize=auto;html=1;" parent="1" edge="1">
          <mxGeometry relative="1" as="geometry">
            <mxPoint x="433" y="586" as="targetPoint" />
            <mxPoint x="433" y="546" as="sourcePoint" />
          </mxGeometry>
        </mxCell>
        <mxCell id="1ukrf8s2K56CdNGvxVET-84" value="&lt;font style=&quot;font-size: 10px;&quot; face=&quot;Comic Sans MS&quot;&gt;&lt;b&gt;Amazon&lt;/b&gt;&lt;/font&gt;&lt;div&gt;&lt;font style=&quot;font-size: 10px;&quot; face=&quot;Comic Sans MS&quot;&gt;&lt;b&gt;Athena&lt;/b&gt;&lt;/font&gt;&lt;/div&gt;" style="text;html=1;align=center;verticalAlign=middle;resizable=0;points=[];autosize=1;strokeColor=none;fillColor=none;" parent="1" vertex="1">
          <mxGeometry x="405" y="514.0038461538461" width="60" height="40" as="geometry" />
        </mxCell>
        <mxCell id="1ukrf8s2K56CdNGvxVET-122" style="edgeStyle=orthogonalEdgeStyle;rounded=0;orthogonalLoop=1;jettySize=auto;html=1;" parent="1" source="1ukrf8s2K56CdNGvxVET-85" edge="1">
          <mxGeometry relative="1" as="geometry">
            <mxPoint x="320" y="632" as="targetPoint" />
          </mxGeometry>
        </mxCell>
        <mxCell id="1ukrf8s2K56CdNGvxVET-85" value="" style="sketch=0;points=[[0,0,0],[0.25,0,0],[0.5,0,0],[0.75,0,0],[1,0,0],[0,1,0],[0.25,1,0],[0.5,1,0],[0.75,1,0],[1,1,0],[0,0.25,0],[0,0.5,0],[0,0.75,0],[1,0.25,0],[1,0.5,0],[1,0.75,0]];outlineConnect=0;fontColor=#232F3E;fillColor=#8C4FFF;strokeColor=#ffffff;dashed=0;verticalLabelPosition=bottom;verticalAlign=top;align=center;html=1;fontSize=12;fontStyle=0;aspect=fixed;shape=mxgraph.aws4.resourceIcon;resIcon=mxgraph.aws4.quicksight;" parent="1" vertex="1">
          <mxGeometry x="411" y="588" width="48" height="48" as="geometry" />
        </mxCell>
        <mxCell id="1ukrf8s2K56CdNGvxVET-87" value="&lt;font style=&quot;font-size: 10px;&quot; face=&quot;Comic Sans MS&quot;&gt;&lt;b&gt;Amazon&lt;/b&gt;&lt;/font&gt;&lt;div&gt;&lt;font face=&quot;Comic Sans MS&quot; style=&quot;font-size: 10px;&quot;&gt;&lt;b&gt;QuickSight&lt;/b&gt;&lt;/font&gt;&lt;/div&gt;" style="text;html=1;align=center;verticalAlign=middle;resizable=0;points=[];autosize=1;strokeColor=none;fillColor=none;" parent="1" vertex="1">
          <mxGeometry x="395" y="636.0038461538461" width="80" height="40" as="geometry" />
        </mxCell>
        <mxCell id="1ukrf8s2K56CdNGvxVET-91" value="&lt;font style=&quot;font-size: 10px;&quot;&gt;&lt;b&gt;Conversation Analytics Visualization&lt;/b&gt;&lt;/font&gt;" style="text;html=1;align=center;verticalAlign=middle;resizable=0;points=[];autosize=1;strokeColor=none;fillColor=none;" parent="1" vertex="1">
          <mxGeometry x="255" y="451.0038461538461" width="200" height="30" as="geometry" />
        </mxCell>
        <mxCell id="1ukrf8s2K56CdNGvxVET-92" value="&lt;font face=&quot;Comic Sans MS&quot;&gt;&lt;span style=&quot;font-size: 10px;&quot;&gt;&lt;b&gt;Amazon&lt;/b&gt;&lt;/span&gt;&lt;/font&gt;&lt;div&gt;&lt;font face=&quot;Comic Sans MS&quot;&gt;&lt;span style=&quot;font-size: 10px;&quot;&gt;&lt;b&gt;Bedrock&lt;/b&gt;&lt;/span&gt;&lt;/font&gt;&lt;/div&gt;" style="text;html=1;align=center;verticalAlign=middle;resizable=0;points=[];autosize=1;strokeColor=none;fillColor=none;" parent="1" vertex="1">
          <mxGeometry x="165.00000000000003" y="516.0038461538461" width="60" height="40" as="geometry" />
        </mxCell>
        <mxCell id="1ukrf8s2K56CdNGvxVET-93" value="&lt;font face=&quot;Comic Sans MS&quot;&gt;&lt;span style=&quot;font-size: 10px;&quot;&gt;&lt;b&gt;Lambda&lt;/b&gt;&lt;/span&gt;&lt;/font&gt;" style="text;html=1;align=center;verticalAlign=middle;resizable=0;points=[];autosize=1;strokeColor=none;fillColor=none;" parent="1" vertex="1">
          <mxGeometry x="25.000000000000043" y="519.0038461538461" width="60" height="30" as="geometry" />
        </mxCell>
        <mxCell id="1ukrf8s2K56CdNGvxVET-94" value="&lt;font face=&quot;Comic Sans MS&quot;&gt;&lt;span style=&quot;font-size: 10px;&quot;&gt;&lt;b&gt;Lambda&lt;/b&gt;&lt;/span&gt;&lt;/font&gt;" style="text;html=1;align=center;verticalAlign=middle;resizable=0;points=[];autosize=1;strokeColor=none;fillColor=none;" parent="1" vertex="1">
          <mxGeometry x="26.000000000000043" y="361.0038461538461" width="60" height="30" as="geometry" />
        </mxCell>
        <mxCell id="1ukrf8s2K56CdNGvxVET-95" value="&lt;font face=&quot;Comic Sans MS&quot;&gt;&lt;span style=&quot;font-size: 10px;&quot;&gt;&lt;b&gt;Customer&lt;/b&gt;&lt;/span&gt;&lt;/font&gt;" style="text;html=1;align=center;verticalAlign=middle;resizable=0;points=[];autosize=1;strokeColor=none;fillColor=none;" parent="1" vertex="1">
          <mxGeometry x="21.000000000000043" y="207.0038461538461" width="70" height="30" as="geometry" />
        </mxCell>
        <mxCell id="1ukrf8s2K56CdNGvxVET-96" value="&lt;font face=&quot;Comic Sans MS&quot;&gt;&lt;span style=&quot;font-size: 10px;&quot;&gt;&lt;b&gt;Agent&lt;/b&gt;&lt;/span&gt;&lt;/font&gt;" style="text;html=1;align=center;verticalAlign=middle;resizable=0;points=[];autosize=1;strokeColor=none;fillColor=none;" parent="1" vertex="1">
          <mxGeometry x="203.00000000000006" y="207.0038461538461" width="50" height="30" as="geometry" />
        </mxCell>
        <mxCell id="1ukrf8s2K56CdNGvxVET-97" value="&lt;font face=&quot;Comic Sans MS&quot;&gt;&lt;span style=&quot;font-size: 10px;&quot;&gt;&lt;b&gt;S3 Bucket&lt;/b&gt;&lt;/span&gt;&lt;/font&gt;&lt;div&gt;&lt;font face=&quot;Comic Sans MS&quot;&gt;&lt;span style=&quot;font-size: 10px;&quot;&gt;&lt;b&gt;Audio Files&lt;/b&gt;&lt;/span&gt;&lt;/font&gt;&lt;/div&gt;" style="text;html=1;align=center;verticalAlign=middle;resizable=0;points=[];autosize=1;strokeColor=none;fillColor=none;" parent="1" vertex="1">
          <mxGeometry x="413.94000000000005" y="206.0038461538461" width="80" height="40" as="geometry" />
        </mxCell>
        <mxCell id="1ukrf8s2K56CdNGvxVET-98" value="&lt;font face=&quot;Comic Sans MS&quot;&gt;&lt;span style=&quot;font-size: 10px;&quot;&gt;&lt;b&gt;S3 Bucket&lt;/b&gt;&lt;/span&gt;&lt;/font&gt;&lt;div&gt;&lt;font face=&quot;Comic Sans MS&quot;&gt;&lt;span style=&quot;font-size: 10px;&quot;&gt;&lt;b&gt;Transcribed&lt;/b&gt;&lt;/span&gt;&lt;/font&gt;&lt;/div&gt;&lt;div&gt;&lt;font face=&quot;Comic Sans MS&quot;&gt;&lt;span style=&quot;font-size: 10px;&quot;&gt;&lt;b&gt;Audio FIles&lt;/b&gt;&lt;/span&gt;&lt;/font&gt;&lt;/div&gt;" style="text;html=1;align=center;verticalAlign=middle;resizable=0;points=[];autosize=1;strokeColor=none;fillColor=none;" parent="1" vertex="1">
          <mxGeometry x="414" y="365.0038461538461" width="80" height="60" as="geometry" />
        </mxCell>
        <mxCell id="1ukrf8s2K56CdNGvxVET-99" value="&lt;font face=&quot;Comic Sans MS&quot;&gt;&lt;span style=&quot;font-size: 10px;&quot;&gt;&lt;b&gt;Amazon&lt;/b&gt;&lt;/span&gt;&lt;/font&gt;&lt;div&gt;&lt;font face=&quot;Comic Sans MS&quot;&gt;&lt;span style=&quot;font-size: 10px;&quot;&gt;&lt;b&gt;Transcribe&lt;/b&gt;&lt;/span&gt;&lt;/font&gt;&lt;/div&gt;" style="text;html=1;align=center;verticalAlign=middle;resizable=0;points=[];autosize=1;strokeColor=none;fillColor=none;" parent="1" vertex="1">
          <mxGeometry x="230.00000000000006" y="361.0038461538461" width="80" height="40" as="geometry" />
        </mxCell>
        <mxCell id="1ukrf8s2K56CdNGvxVET-107" value="" style="group" parent="1" vertex="1" connectable="0">
          <mxGeometry x="266" y="452" width="205" height="220" as="geometry" />
        </mxCell>
        <mxCell id="1ukrf8s2K56CdNGvxVET-101" value="" style="endArrow=none;dashed=1;html=1;rounded=0;" parent="1ukrf8s2K56CdNGvxVET-107" edge="1">
          <mxGeometry width="50" height="50" relative="1" as="geometry">
            <mxPoint as="sourcePoint" />
            <mxPoint x="205" as="targetPoint" />
          </mxGeometry>
        </mxCell>
        <mxCell id="1ukrf8s2K56CdNGvxVET-102" value="" style="endArrow=none;dashed=1;html=1;rounded=0;" parent="1ukrf8s2K56CdNGvxVET-107" edge="1">
          <mxGeometry width="50" height="50" relative="1" as="geometry">
            <mxPoint x="1" as="sourcePoint" />
            <mxPoint x="1" y="120" as="targetPoint" />
          </mxGeometry>
        </mxCell>
        <mxCell id="1ukrf8s2K56CdNGvxVET-103" value="" style="endArrow=none;dashed=1;html=1;rounded=0;" parent="1ukrf8s2K56CdNGvxVET-107" edge="1">
          <mxGeometry width="50" height="50" relative="1" as="geometry">
            <mxPoint x="205" y="1" as="sourcePoint" />
            <mxPoint x="205" y="220" as="targetPoint" />
          </mxGeometry>
        </mxCell>
        <mxCell id="1ukrf8s2K56CdNGvxVET-104" value="" style="endArrow=none;dashed=1;html=1;rounded=0;" parent="1ukrf8s2K56CdNGvxVET-107" edge="1">
          <mxGeometry width="50" height="50" relative="1" as="geometry">
            <mxPoint x="101" y="220" as="sourcePoint" />
            <mxPoint x="205" y="220" as="targetPoint" />
          </mxGeometry>
        </mxCell>
        <mxCell id="1ukrf8s2K56CdNGvxVET-105" value="" style="endArrow=none;dashed=1;html=1;rounded=0;" parent="1ukrf8s2K56CdNGvxVET-107" edge="1">
          <mxGeometry width="50" height="50" relative="1" as="geometry">
            <mxPoint x="1" y="116.48000000000002" as="sourcePoint" />
            <mxPoint x="101" y="116" as="targetPoint" />
          </mxGeometry>
        </mxCell>
        <mxCell id="1ukrf8s2K56CdNGvxVET-106" value="" style="endArrow=none;dashed=1;html=1;rounded=0;" parent="1ukrf8s2K56CdNGvxVET-107" edge="1">
          <mxGeometry width="50" height="50" relative="1" as="geometry">
            <mxPoint x="101" y="117" as="sourcePoint" />
            <mxPoint x="101" y="220" as="targetPoint" />
          </mxGeometry>
        </mxCell>
        <mxCell id="1ukrf8s2K56CdNGvxVET-116" value="" style="sketch=0;points=[[0,0,0],[0.25,0,0],[0.5,0,0],[0.75,0,0],[1,0,0],[0,1,0],[0.25,1,0],[0.5,1,0],[0.75,1,0],[1,1,0],[0,0.25,0],[0,0.5,0],[0,0.75,0],[1,0.25,0],[1,0.5,0],[1,0.75,0]];outlineConnect=0;fontColor=#232F3E;fillColor=#8C4FFF;strokeColor=#ffffff;dashed=0;verticalLabelPosition=bottom;verticalAlign=top;align=center;html=1;fontSize=12;fontStyle=0;aspect=fixed;shape=mxgraph.aws4.resourceIcon;resIcon=mxgraph.aws4.analytics;" parent="1ukrf8s2K56CdNGvxVET-107" vertex="1">
          <mxGeometry x="104" y="34" width="18" height="18" as="geometry" />
        </mxCell>
        <mxCell id="1ukrf8s2K56CdNGvxVET-88" value="" style="sketch=0;outlineConnect=0;fontColor=#232F3E;gradientColor=none;fillColor=#e7157b;strokeColor=none;dashed=0;verticalLabelPosition=bottom;verticalAlign=top;align=center;html=1;fontSize=12;fontStyle=0;aspect=fixed;pointerEvents=1;shape=mxgraph.aws4.users;" parent="1ukrf8s2K56CdNGvxVET-107" vertex="1">
          <mxGeometry y="160" width="50" height="50" as="geometry" />
        </mxCell>
        <mxCell id="1ukrf8s2K56CdNGvxVET-130" value="&lt;font face=&quot;Helvetica&quot; style=&quot;font-size: 10px;&quot;&gt;&lt;b&gt;8&lt;/b&gt;&lt;/font&gt;" style="ellipse;whiteSpace=wrap;html=1;aspect=fixed;fillColor=#f58534;" parent="1ukrf8s2K56CdNGvxVET-107" vertex="1">
          <mxGeometry x="74" y="173" width="13" height="13" as="geometry" />
        </mxCell>
        <mxCell id="1ukrf8s2K56CdNGvxVET-109" style="edgeStyle=orthogonalEdgeStyle;rounded=0;orthogonalLoop=1;jettySize=auto;html=1;" parent="1" edge="1">
          <mxGeometry relative="1" as="geometry">
            <mxPoint x="60.00999999999999" y="600.9200000000001" as="targetPoint" />
            <mxPoint x="309" y="516" as="sourcePoint" />
            <Array as="points">
              <mxPoint x="267" y="516" />
              <mxPoint x="267" y="568" />
              <mxPoint x="60" y="568" />
            </Array>
          </mxGeometry>
        </mxCell>
        <mxCell id="1ukrf8s2K56CdNGvxVET-108" value="" style="sketch=0;points=[[0,0,0],[0.25,0,0],[0.5,0,0],[0.75,0,0],[1,0,0],[0,1,0],[0.25,1,0],[0.5,1,0],[0.75,1,0],[1,1,0],[0,0.25,0],[0,0.5,0],[0,0.75,0],[1,0.25,0],[1,0.5,0],[1,0.75,0]];outlineConnect=0;fontColor=#232F3E;fillColor=#8C4FFF;strokeColor=#ffffff;dashed=0;verticalLabelPosition=bottom;verticalAlign=top;align=center;html=1;fontSize=12;fontStyle=0;aspect=fixed;shape=mxgraph.aws4.resourceIcon;resIcon=mxgraph.aws4.analytics;" parent="1" vertex="1">
          <mxGeometry x="260" y="484" width="18" height="18" as="geometry" />
        </mxCell>
        <mxCell id="1ukrf8s2K56CdNGvxVET-112" value="" style="sketch=0;pointerEvents=1;shadow=0;dashed=0;html=1;strokeColor=none;fillColor=#01a88d;labelPosition=center;verticalLabelPosition=bottom;verticalAlign=top;outlineConnect=0;align=center;shape=mxgraph.office.users.call_center_agent;" parent="1" vertex="1">
          <mxGeometry x="152.1" y="612" width="37.9" height="50" as="geometry" />
        </mxCell>
        <mxCell id="1ukrf8s2K56CdNGvxVET-119" style="edgeStyle=orthogonalEdgeStyle;rounded=0;orthogonalLoop=1;jettySize=auto;html=1;" parent="1" edge="1">
          <mxGeometry relative="1" as="geometry">
            <mxPoint x="154" y="631" as="targetPoint" />
            <mxPoint x="93" y="631.0000000000002" as="sourcePoint" />
          </mxGeometry>
        </mxCell>
        <mxCell id="1ukrf8s2K56CdNGvxVET-113" value="" style="sketch=0;points=[[0,0,0],[0.25,0,0],[0.5,0,0],[0.75,0,0],[1,0,0],[0,1,0],[0.25,1,0],[0.5,1,0],[0.75,1,0],[1,1,0],[0,0.25,0],[0,0.5,0],[0,0.75,0],[1,0.25,0],[1,0.5,0],[1,0.75,0]];outlineConnect=0;fontColor=#232F3E;fillColor=#8C4FFF;strokeColor=#ffffff;dashed=0;verticalLabelPosition=bottom;verticalAlign=top;align=center;html=1;fontSize=12;fontStyle=0;aspect=fixed;shape=mxgraph.aws4.resourceIcon;resIcon=mxgraph.aws4.cloudfront;" parent="1" vertex="1">
          <mxGeometry x="41" y="612" width="48" height="48" as="geometry" />
        </mxCell>
        <mxCell id="1ukrf8s2K56CdNGvxVET-100" value="&lt;font face=&quot;Comic Sans MS&quot;&gt;&lt;span style=&quot;font-size: 10px;&quot;&gt;&lt;b&gt;Business&lt;/b&gt;&lt;/span&gt;&lt;/font&gt;&lt;div&gt;&lt;font face=&quot;Comic Sans MS&quot;&gt;&lt;span style=&quot;font-size: 10px;&quot;&gt;&lt;b&gt;Analysis&lt;/b&gt;&lt;/span&gt;&lt;/font&gt;&lt;/div&gt;" style="text;html=1;align=center;verticalAlign=middle;resizable=0;points=[];autosize=1;strokeColor=none;fillColor=none;" parent="1" vertex="1">
          <mxGeometry x="262" y="655.0038461538461" width="60" height="40" as="geometry" />
        </mxCell>
        <mxCell id="1ukrf8s2K56CdNGvxVET-114" value="" style="sketch=0;points=[[0,0,0],[0.25,0,0],[0.5,0,0],[0.75,0,0],[1,0,0],[0,1,0],[0.25,1,0],[0.5,1,0],[0.75,1,0],[1,1,0],[0,0.25,0],[0,0.5,0],[0,0.75,0],[1,0.25,0],[1,0.5,0],[1,0.75,0]];outlineConnect=0;fontColor=#232F3E;fillColor=#8C4FFF;strokeColor=#ffffff;dashed=0;verticalLabelPosition=bottom;verticalAlign=top;align=center;html=1;fontSize=12;fontStyle=0;aspect=fixed;shape=mxgraph.aws4.resourceIcon;resIcon=mxgraph.aws4.analytics;" parent="1" vertex="1">
          <mxGeometry x="300.4" y="501" width="18" height="18" as="geometry" />
        </mxCell>
        <mxCell id="1ukrf8s2K56CdNGvxVET-117" value="&lt;font face=&quot;Comic Sans MS&quot;&gt;&lt;span style=&quot;font-size: 10px;&quot;&gt;&lt;b&gt;Amazon&lt;/b&gt;&lt;/span&gt;&lt;/font&gt;&lt;div&gt;&lt;font face=&quot;Comic Sans MS&quot;&gt;&lt;span style=&quot;font-size: 10px;&quot;&gt;&lt;b&gt;CloudFront&lt;/b&gt;&lt;/span&gt;&lt;/font&gt;&lt;/div&gt;" style="text;html=1;align=center;verticalAlign=middle;resizable=0;points=[];autosize=1;strokeColor=none;fillColor=none;" parent="1" vertex="1">
          <mxGeometry x="30.000000000000043" y="652.0038461538461" width="70" height="40" as="geometry" />
        </mxCell>
        <mxCell id="1ukrf8s2K56CdNGvxVET-118" value="&lt;font face=&quot;Comic Sans MS&quot;&gt;&lt;span style=&quot;font-size: 10px;&quot;&gt;&lt;b&gt;Agent/supervisor&lt;/b&gt;&lt;/span&gt;&lt;/font&gt;" style="text;html=1;align=center;verticalAlign=middle;resizable=0;points=[];autosize=1;strokeColor=none;fillColor=none;" parent="1" vertex="1">
          <mxGeometry x="116.05000000000004" y="653.0038461538461" width="110" height="30" as="geometry" />
        </mxCell>
        <mxCell id="1ukrf8s2K56CdNGvxVET-123" value="&lt;font face=&quot;Helvetica&quot; style=&quot;font-size: 10px;&quot;&gt;&lt;b&gt;1&lt;/b&gt;&lt;/font&gt;" style="ellipse;whiteSpace=wrap;html=1;aspect=fixed;fillColor=#f58534;" parent="1" vertex="1">
          <mxGeometry x="375.46000000000004" y="182" width="13" height="13" as="geometry" />
        </mxCell>
        <mxCell id="1ukrf8s2K56CdNGvxVET-124" value="&lt;font face=&quot;Helvetica&quot; style=&quot;font-size: 10px;&quot;&gt;&lt;b&gt;2&lt;/b&gt;&lt;/font&gt;" style="ellipse;whiteSpace=wrap;html=1;aspect=fixed;fillColor=#f58534;" parent="1" vertex="1">
          <mxGeometry x="342" y="274.5" width="13" height="13" as="geometry" />
        </mxCell>
        <mxCell id="1ukrf8s2K56CdNGvxVET-126" value="&lt;font face=&quot;Helvetica&quot; style=&quot;font-size: 10px;&quot;&gt;&lt;b&gt;3&lt;/b&gt;&lt;/font&gt;" style="ellipse;whiteSpace=wrap;html=1;aspect=fixed;fillColor=#f58534;" parent="1" vertex="1">
          <mxGeometry x="184.39999999999998" y="334" width="13" height="13" as="geometry" />
        </mxCell>
        <mxCell id="1ukrf8s2K56CdNGvxVET-127" value="&lt;font face=&quot;Helvetica&quot; style=&quot;font-size: 10px;&quot;&gt;&lt;b&gt;5&lt;/b&gt;&lt;/font&gt;" style="ellipse;whiteSpace=wrap;html=1;aspect=fixed;fillColor=#f58534;" parent="1" vertex="1">
          <mxGeometry x="212" y="434" width="13" height="13" as="geometry" />
        </mxCell>
        <mxCell id="1ukrf8s2K56CdNGvxVET-128" value="&lt;font face=&quot;Helvetica&quot; style=&quot;font-size: 10px;&quot;&gt;&lt;b&gt;6&lt;/b&gt;&lt;/font&gt;" style="ellipse;whiteSpace=wrap;html=1;aspect=fixed;fillColor=#f58534;" parent="1" vertex="1">
          <mxGeometry x="139" y="485" width="13" height="13" as="geometry" />
        </mxCell>
        <mxCell id="1ukrf8s2K56CdNGvxVET-129" value="&lt;font face=&quot;Helvetica&quot; style=&quot;font-size: 10px;&quot;&gt;&lt;b&gt;7&lt;/b&gt;&lt;/font&gt;" style="ellipse;whiteSpace=wrap;html=1;aspect=fixed;fillColor=#f58534;" parent="1" vertex="1">
          <mxGeometry x="247" y="487" width="13" height="13" as="geometry" />
        </mxCell>
        <mxCell id="1ukrf8s2K56CdNGvxVET-131" value="&lt;font face=&quot;Helvetica&quot; style=&quot;font-size: 10px;&quot;&gt;&lt;b&gt;4&lt;/b&gt;&lt;/font&gt;" style="ellipse;whiteSpace=wrap;html=1;aspect=fixed;fillColor=#f58534;" parent="1" vertex="1">
          <mxGeometry x="384.9" y="334" width="13" height="13" as="geometry" />
        </mxCell>
        <mxCell id="1ukrf8s2K56CdNGvxVET-133" value="&lt;font face=&quot;Helvetica&quot; style=&quot;font-size: 10px;&quot;&gt;&lt;b&gt;9&lt;/b&gt;&lt;/font&gt;" style="ellipse;whiteSpace=wrap;html=1;aspect=fixed;fillColor=#f58534;" parent="1" vertex="1">
          <mxGeometry x="116.19999999999999" y="624" width="13" height="13" as="geometry" />
        </mxCell>
        <mxCell id="SWAPzX91SK70woxIfJgo-1" value="" style="sketch=0;points=[[0,0,0],[0.25,0,0],[0.5,0,0],[0.75,0,0],[1,0,0],[0,1,0],[0.25,1,0],[0.5,1,0],[0.75,1,0],[1,1,0],[0,0.25,0],[0,0.5,0],[0,0.75,0],[1,0.25,0],[1,0.5,0],[1,0.75,0]];outlineConnect=0;fontColor=#232F3E;fillColor=#E7157B;strokeColor=#ffffff;dashed=0;verticalLabelPosition=bottom;verticalAlign=top;align=center;html=1;fontSize=12;fontStyle=0;aspect=fixed;shape=mxgraph.aws4.resourceIcon;resIcon=mxgraph.aws4.eventbridge;" vertex="1" parent="1">
          <mxGeometry x="462" y="316" width="18" height="18" as="geometry" />
        </mxCell>
      </root>
    </mxGraphModel>
  </diagram>
</mxfile>
